<?xml version="1.0"?>
<svg xmlns="http://www.w3.org/2000/svg" xmlns:xlink="http://www.w3.org/1999/xlink" version="1.1" id="Capa_1" x="0px" y="0px" viewBox="0 0 512 512" style="enable-background:new 0 0 512 512;" xml:space="preserve" width="512px" height="512px" class=""><g><path style="fill:#FF4700" d="M256,476.69c-121.882,0-220.69-98.807-220.69-220.69S134.118,35.31,256,35.31  S476.69,134.118,476.69,256S377.882,476.69,256,476.69z M256,70.621C153.618,70.621,70.621,153.618,70.621,256  S153.618,441.379,256,441.379S441.379,358.382,441.379,256S358.382,70.621,256,70.621z" data-original="#6345B1" class="active-path" data-old_color="#FF4F00"/><path style="fill:#FF7500" d="M494.345,238.345h-98.339c-8.104-63.912-58.439-114.247-122.35-122.35V17.655  C273.655,7.901,265.754,0,256,0s-17.655,7.901-17.655,17.655v98.339c-63.912,8.104-114.247,58.439-122.35,122.35H17.655  C7.901,238.345,0,246.246,0,256s7.901,17.655,17.655,17.655h98.339c8.104,63.912,58.439,114.247,122.35,122.35v98.339  c0,9.754,7.901,17.655,17.655,17.655s17.655-7.901,17.655-17.655v-98.339c63.912-8.104,114.247-58.439,122.35-122.35h98.339  c9.754,0,17.655-7.901,17.655-17.655S504.099,238.345,494.345,238.345z M256,361.931c-58.5,0-105.931-47.431-105.931-105.931  S197.5,150.069,256,150.069S361.931,197.5,361.931,256S314.5,361.931,256,361.931L256,361.931z" data-original="#F65FC9" class="" data-old_color="#FF7C00"/></g> </svg>
