<svg id="Layer_1" enable-background="new 0 0 512 512" height="512" viewBox="0 0 512 512" width="512" xmlns="http://www.w3.org/2000/svg"><g><path d="m464.383 480.435-4.402-49.178c-3.033-33.897-27.398-61.72-60.63-69.234l-77.656-17.559-14.346-13.845c-.804-8.031-.61-16.133.583-24.12l1.98-13.249c24.118-22.494 35.898-42.536 35.898-60.935 0-2.333-.095-4.616-.289-6.874-.088-.895-.168-1.842-.24-2.837 14.707-2.913 25.959-15.878 26.148-31.384.107-8.727-3.213-16.953-9.35-23.163-2.19-2.216-4.643-4.077-7.287-5.554 6.548-7.054 10.208-14.922 10.208-23.212 0-3.822-.753-7.774-2.143-11.488 22.898-14.398 34.946-31.746 34.946-50.467 0-15.788-8.655-30.982-25.029-43.94-3.245-2.57-7.963-2.022-10.535 1.224-2.571 3.246-2.023 7.961 1.225 10.531 8.822 6.983 19.34 18.234 19.34 32.186 0 14.008-11.27 28.202-31.787 40.101h-189.367c-19.384-11.629-30.455-26.171-30.455-40.101 0-33.21 58.845-62.342 125.929-62.342 29.312 0 58.066 5.467 80.967 15.394 3.802 1.646 8.217-.097 9.865-3.895 1.648-3.799-.097-8.213-3.896-9.86-24.744-10.728-55.618-16.634-86.936-16.634-77.708 0-140.929 34.693-140.929 77.335 0 18.394 11.763 36.021 33.31 50.18-1.665 3.835-2.505 7.774-2.505 11.775 0 8.578 3.925 16.703 10.918 23.944-2.156 1.339-4.17 2.944-6.001 4.797-6.137 6.209-9.457 14.435-9.349 23.162.19 15.508 11.445 28.474 26.155 31.385-.075 1.048-.159 2.046-.251 2.986-.188 2.125-.282 4.395-.282 6.749 0 18.317 11.669 38.256 35.55 60.61l1.99 13.314c1.234 8.256 1.4 16.634.498 24.928l-13.766 12.783-79.827 18.066c-33.223 7.52-57.581 35.341-60.614 69.23l-4.403 49.191c-.724 8.079 2.004 16.147 7.482 22.135 5.483 5.993 13.289 9.43 21.416 9.43h87.175c4.143 0 7.5-3.356 7.5-7.497 0-4.14-3.357-7.497-7.5-7.497h-15.853v-58.541c0-4.14-3.357-7.497-7.5-7.497s-7.5 3.356-7.5 7.497v58.541h-56.322c-3.984 0-7.659-1.617-10.347-4.555-2.684-2.932-3.966-6.725-3.612-10.681l4.403-49.19c2.451-27.385 22.138-49.866 48.987-55.943l74.817-16.932 12.958 45.579c.669 2.351 2.442 4.23 4.753 5.032.802.279 1.634.415 2.461.415 1.556 0 3.094-.483 4.389-1.417l16.637-11.995 5.529 14.467-22.777 85.219h-16.11c-4.143 0-7.5 3.356-7.5 7.497 0 4.14 3.357 7.497 7.5 7.497h236.881c8.127 0 15.933-3.437 21.416-9.43 5.478-5.986 8.205-14.054 7.482-22.134zm-195.091-110.977 30.207-25.574 10.022 9.672-10.513 37.326zm-12.163-9.351-35.71-30.233c.604-7.333.488-14.709-.349-22.021 10.227 7.907 22.89 12.243 35.812 12.243h.23c12.802 0 25.329-4.242 35.479-11.976-.844 7.384-.954 14.835-.328 22.241zm-93.36-227.677h184.798c.919 2.216 1.434 4.619 1.434 6.861 0 18.854-40.159 39.941-93.904 39.941-25.744 0-50.107-4.838-68.601-13.621-15.965-7.583-25.496-17.422-25.496-26.32 0-2.247.594-4.545 1.769-6.861zm192.663 58.607c-.092 7.472-4.966 13.846-11.672 16.208-.057-10.074.311-21.645 1.068-32.449 2.063.875 3.956 2.155 5.58 3.799 3.297 3.334 5.08 7.753 5.024 12.442zm-198.866-.028c-.058-4.688 1.726-9.106 5.022-12.442 1.625-1.644 3.517-2.924 5.581-3.799.757 10.795 1.127 22.36 1.07 32.45-6.706-2.361-11.581-8.736-11.673-16.209zm25.623 41.304c0-1.917.075-3.746.217-5.361 1.099-11.203 1.108-29.238.142-46.668 19.293 8.666 44.72 13.94 72.548 13.94 28.745 0 54.924-5.647 74.408-14.857-1.016 17.693-1.029 36.133.082 47.445.149 1.743.226 3.595.226 5.502 0 16.774-15.987 38.569-46.246 63.042-7.736 6.287-17.48 9.746-27.481 9.746-.057 0-.115 0-.172 0-9.987 0-19.748-3.467-27.51-9.781-30.234-24.447-46.214-46.235-46.214-63.008zm32.038 158.586-10.712-37.679 10.145-9.421 30.307 25.658zm41.902-11.724 12.538 9.04-6.144 15.669h-12.998l-5.977-15.638zm-26.89 117.832 20.883-78.13h11.772l21.101 78.13zm215.592-4.555c-2.688 2.937-6.362 4.555-10.347 4.555h-56.322v-58.541c0-4.14-3.357-7.497-7.5-7.497s-7.5 3.356-7.5 7.497v58.541h-64.63l-23.008-85.195 5.702-14.542 16.707 12.046c1.295.934 2.833 1.417 4.389 1.417.83 0 1.665-.138 2.47-.419 2.313-.806 4.085-2.69 4.749-5.047l12.697-45.082 72.803 16.462c26.857 6.072 46.549 28.555 49 55.946l4.402 49.178c.354 3.955-.928 7.749-3.612 10.681z"/><path d="m236.814 271.858h40.372c4.143 0 7.5-3.356 7.5-7.497 0-4.14-3.357-7.497-7.5-7.497h-40.372c-4.143 0-7.5 3.356-7.5 7.497 0 4.14 3.358 7.497 7.5 7.497z"/><path d="m223.5 73.969v14c0 4.14 3.357 7.497 7.5 7.497s7.5-3.356 7.5-7.497v-14c0-4.14-3.357-7.497-7.5-7.497s-7.5 3.357-7.5 7.497z"/><path d="m248.5 48.981v14c0 4.14 3.357 7.497 7.5 7.497s7.5-3.356 7.5-7.497v-14c0-4.14-3.357-7.497-7.5-7.497s-7.5 3.356-7.5 7.497z"/><path d="m273.5 73.969v14c0 4.14 3.357 7.497 7.5 7.497s7.5-3.356 7.5-7.497v-14c0-4.14-3.357-7.497-7.5-7.497s-7.5 3.357-7.5 7.497z"/><path d="m298.5 48.981v14c0 4.14 3.357 7.497 7.5 7.497s7.5-3.356 7.5-7.497v-14c0-4.14-3.357-7.497-7.5-7.497s-7.5 3.356-7.5 7.497z"/><path d="m198.5 48.981v14c0 4.14 3.357 7.497 7.5 7.497s7.5-3.356 7.5-7.497v-14c0-4.14-3.357-7.497-7.5-7.497s-7.5 3.356-7.5 7.497z"/></g></svg>